<svg width="25" height="19" viewBox="0 0 25 19" fill="none" xmlns="http://www.w3.org/2000/svg">
<path d="M24.6478 2.32592C24.5728 2.23351 24.4783 2.15886 24.371 2.10732C24.2638 2.05579 24.1465 2.02865 24.0275 2.02786H7.25581L7.77942 3.63897H22.9722L20.8214 13.3056H8.73803L5.05664 1.64925C5.01682 1.52557 4.94767 1.41335 4.8551 1.32217C4.76252 1.23099 4.64926 1.16357 4.52498 1.12564L1.2222 0.11064C1.12064 0.0794327 1.01394 0.068534 0.908168 0.078566C0.802401 0.0885979 0.699645 0.119364 0.605767 0.169108C0.416173 0.26957 0.274253 0.441234 0.211227 0.646334C0.148201 0.851435 0.169233 1.07317 0.269695 1.26277C0.370157 1.45236 0.541821 1.59428 0.746922 1.65731L3.63887 2.54342L7.33637 14.224L6.01525 15.3034L5.91053 15.4081C5.58375 15.7847 5.39852 16.2635 5.38676 16.762C5.375 17.2604 5.53743 17.7474 5.84609 18.139C6.06565 18.406 6.34465 18.6179 6.66078 18.7578C6.9769 18.8977 7.32138 18.9616 7.66664 18.9445H21.1114C21.325 18.9445 21.5299 18.8597 21.681 18.7086C21.8321 18.5575 21.9169 18.3526 21.9169 18.139C21.9169 17.9253 21.8321 17.7204 21.681 17.5694C21.5299 17.4183 21.325 17.3334 21.1114 17.3334H7.53776C7.44499 17.3302 7.35461 17.3032 7.27535 17.2549C7.19609 17.2066 7.13062 17.1387 7.08527 17.0577C7.03992 16.9767 7.01622 16.8854 7.01646 16.7926C7.0167 16.6998 7.04087 16.6086 7.08664 16.5279L9.02803 14.9167H21.4658C21.652 14.9213 21.8341 14.8612 21.9809 14.7466C22.1278 14.6321 22.2304 14.4701 22.2714 14.2884L24.825 3.01064C24.8495 2.89055 24.8462 2.76645 24.8155 2.64779C24.7848 2.52913 24.7274 2.41905 24.6478 2.32592Z" fill="#272727"/>
</svg>
