<svg width="27" height="23" viewBox="0 0 27 23" fill="none" xmlns="http://www.w3.org/2000/svg">
<path d="M25.9698 5.66361C25.8236 5.0912 25.5978 4.54212 25.2992 4.03236C25.0123 3.50208 24.6455 3.01912 24.2117 2.60049C23.5827 1.9736 22.8378 1.47498 22.0186 1.13236C20.3695 0.455554 18.5202 0.455554 16.8711 1.13236C16.0967 1.46013 15.3853 1.92011 14.7686 2.49174L14.6779 2.60049L13.4998 3.77861L12.3217 2.60049L12.2311 2.49174C11.6144 1.92011 10.9029 1.46013 10.1286 1.13236C8.47947 0.455554 6.63016 0.455554 4.98106 1.13236C4.16179 1.47498 3.41693 1.9736 2.78794 2.60049C1.92766 3.43755 1.31868 4.49857 1.02982 5.66361C0.876143 6.25525 0.802983 6.86491 0.812316 7.47611C0.812316 8.05067 0.884816 8.62342 1.02982 9.17986C1.18176 9.74181 1.40084 10.2834 1.68232 10.793C1.9863 11.3168 2.35805 11.7983 2.78794 12.2249L13.4998 22.9367L24.2117 12.2249C24.6412 11.8025 25.0092 11.3186 25.2992 10.793C25.8879 9.78724 26.1947 8.64145 26.1873 7.47611C26.1967 6.86491 26.1236 6.25524 25.9698 5.66361ZM24.1573 8.61799C23.9402 9.44615 23.5089 10.2026 22.9067 10.8111L13.4636 20.2361L4.02044 10.8111C3.71272 10.5012 3.44482 10.1542 3.22294 9.77799C3.01415 9.40584 2.8499 9.01041 2.73357 8.59986C2.64069 8.18936 2.59208 7.77009 2.58857 7.34924C2.59102 6.91634 2.63963 6.48495 2.73357 6.06236C2.84649 5.65063 3.01091 5.2548 3.22294 4.88424C3.44044 4.50361 3.70869 4.15924 4.02044 3.85111C4.48606 3.39172 5.03308 3.02295 5.63356 2.76361C6.84361 2.27953 8.19352 2.27953 9.40356 2.76361C10.0017 3.01192 10.5418 3.37624 10.9986 3.83299L13.4636 6.31611L15.9286 3.83299C16.385 3.37543 16.9269 3.01208 17.5236 2.76361C18.7336 2.27953 20.0835 2.27953 21.2936 2.76361C21.8935 3.0228 22.4409 3.39255 22.9067 3.85111C23.2221 4.15017 23.4867 4.49817 23.6861 4.88424C24.1059 5.62457 24.3246 6.46191 24.3204 7.31299C24.3451 7.75093 24.3085 8.19017 24.2117 8.61799H24.1573Z" fill="black"/>
</svg>
